<svg width="29" height="25" viewBox="0 0 29 25" fill="none" xmlns="http://www.w3.org/2000/svg">
<path d="M18.9563 0.916992L23.4458 8.40842H28.2303V11.1022H26.5991L25.541 23.336C25.512 23.6726 25.3527 23.9864 25.0949 24.2151C24.837 24.4439 24.4994 24.571 24.1489 24.5712H4.35681C4.00608 24.5713 3.6681 24.4444 3.40996 24.2156C3.15182 23.9868 2.99237 23.6729 2.96326 23.336L1.90516 11.1022H0.275391V8.40842H5.05848L9.54804 0.916992L11.9689 2.26389L8.28727 8.40842H20.217L16.5368 2.26389L18.9577 0.916992H18.9563ZM23.7925 11.1022H4.71184L5.64413 21.8774H22.863L23.7953 11.1022H23.7925ZM15.6506 13.796V19.1836H12.8551V13.796H15.6506ZM10.0596 13.796V19.1836H7.26412V13.796H10.0596ZM21.2416 13.796V19.1836H18.4461V13.796H21.2416Z" fill="white"/>
</svg>
